<svg width="10" height="10" viewBox="0 0 10 10" fill="none" xmlns="http://www.w3.org/2000/svg">
<g id="bag-plus 1" clip-path="url(#clip0_496_133)">
<path id="Vector" fill-rule="evenodd" clip-rule="evenodd" d="M5 4.6875C5.08288 4.6875 5.16237 4.72042 5.22097 4.77903C5.27958 4.83763 5.3125 4.91712 5.3125 5V5.9375H6.25C6.33288 5.9375 6.41237 5.97042 6.47097 6.02903C6.52958 6.08763 6.5625 6.16712 6.5625 6.25C6.5625 6.33288 6.52958 6.41237 6.47097 6.47097C6.41237 6.52958 6.33288 6.5625 6.25 6.5625H5.3125V7.5C5.3125 7.58288 5.27958 7.66237 5.22097 7.72097C5.16237 7.77958 5.08288 7.8125 5 7.8125C4.91712 7.8125 4.83763 7.77958 4.77903 7.72097C4.72042 7.66237 4.6875 7.58288 4.6875 7.5V6.5625H3.75C3.66712 6.5625 3.58763 6.52958 3.52903 6.47097C3.47042 6.41237 3.4375 6.33288 3.4375 6.25C3.4375 6.16712 3.47042 6.08763 3.52903 6.02903C3.58763 5.97042 3.66712 5.9375 3.75 5.9375H4.6875V5C4.6875 4.91712 4.72042 4.83763 4.77903 4.77903C4.83763 4.72042 4.91712 4.6875 5 4.6875Z" fill="#FF8A00"/>
<path id="Vector_2" d="M5 0.625C5.4144 0.625 5.81183 0.78962 6.10485 1.08265C6.39788 1.37567 6.5625 1.7731 6.5625 2.1875V2.5H3.4375V2.1875C3.4375 1.7731 3.60212 1.37567 3.89515 1.08265C4.18817 0.78962 4.5856 0.625 5 0.625ZM7.1875 2.5V2.1875C7.1875 1.60734 6.95703 1.05094 6.5468 0.640704C6.13656 0.230468 5.58016 0 5 0C4.41984 0 3.86344 0.230468 3.4532 0.640704C3.04297 1.05094 2.8125 1.60734 2.8125 2.1875V2.5H0.625V8.75C0.625 9.08152 0.756696 9.39946 0.991117 9.63388C1.22554 9.8683 1.54348 10 1.875 10H8.125C8.45652 10 8.77446 9.8683 9.00888 9.63388C9.2433 9.39946 9.375 9.08152 9.375 8.75V2.5H7.1875ZM1.25 3.125H8.75V8.75C8.75 8.91576 8.68415 9.07473 8.56694 9.19194C8.44973 9.30915 8.29076 9.375 8.125 9.375H1.875C1.70924 9.375 1.55027 9.30915 1.43306 9.19194C1.31585 9.07473 1.25 8.91576 1.25 8.75V3.125Z" fill="#FF8A00"/>
</g>
<defs>
<clipPath id="clip0_496_133">
<rect width="10" height="10" fill="white"/>
</clipPath>
</defs>
</svg>
