<svg width="16" height="17" viewBox="0 0 16 17" fill="none" xmlns="http://www.w3.org/2000/svg">
<g id="Group 1">
<path id="Vector" d="M7.5 1.5C8.16304 1.5 8.79893 1.76339 9.26777 2.23223C9.73661 2.70107 10 3.33696 10 4V4.5H5V4C5 3.33696 5.26339 2.70107 5.73223 2.23223C6.20107 1.76339 6.83696 1.5 7.5 1.5ZM11 4.5V4C11 3.07174 10.6313 2.1815 9.97487 1.52513C9.3185 0.868749 8.42826 0.5 7.5 0.5C6.57174 0.5 5.6815 0.868749 5.02513 1.52513C4.36875 2.1815 4 3.07174 4 4V4.5H0.5V14.5C0.5 15.0304 0.710714 15.5391 1.08579 15.9142C1.46086 16.2893 1.96957 16.5 2.5 16.5H12.5C13.0304 16.5 13.5391 16.2893 13.9142 15.9142C14.2893 15.5391 14.5 15.0304 14.5 14.5V4.5H11ZM1.5 5.5H13.5V14.5C13.5 14.7652 13.3946 15.0196 13.2071 15.2071C13.0196 15.3946 12.7652 15.5 12.5 15.5H2.5C2.23478 15.5 1.98043 15.3946 1.79289 15.2071C1.60536 15.0196 1.5 14.7652 1.5 14.5V5.5Z" fill="black"/>
<circle id="Ellipse 4" cx="12.5" cy="4.5" r="3" fill="#FF8A00"/>
</g>
</svg>
